<?xml version="1.0" encoding="UTF-8" standalone="no"?><!DOCTYPE svg PUBLIC "-//W3C//DTD SVG 1.1//EN" "http://www.w3.org/Graphics/SVG/1.1/DTD/svg11.dtd"><svg width="256" height="256" viewBox="0 0 512 512" version="1.1" xmlns="http://www.w3.org/2000/svg" xmlns:xlink="http://www.w3.org/1999/xlink" xml:space="preserve" xmlns:serif="http://www.serif.com/" style="fill-rule:evenodd;clip-rule:evenodd;stroke-linejoin:round;stroke-miterlimit:2;"><path id="body-bg-flat" d="M111,504c0,0 -10.302,-90.311 78.44,-100.387l37.973,0l0,-17.493c0,0 26.712,11.473 53.76,1.28l0.854,16.213l44.373,0c0,0 77.273,7.715 72.6,100.387l-288,0Z" style="fill:#fff;fill-rule:nonzero;"/><path id="Rounded-Rectangle-13-copy-3" serif:id="Rounded Rectangle 13 copy 3" d="M398.262,505.587l-284.516,0l-5.518,0l1.377,-23.53c2.689,-45.942 38.887,-81.004 80.31,-81.004l37.498,0l0,4.694l-34.983,0c-39.924,0 -74.811,33.748 -77.403,77.97l-0.956,16.323l283.439,0l-0.53,-16.323c-2.592,-44.222 -37.479,-77.97 -77.402,-77.97l-35.418,0l0,-4.694l37.679,0c41.424,0 77.621,35.062 80.31,81.004l1.378,23.53l-5.265,0Z" style="fill:#3b434f;fill-rule:nonzero;"/><path id="neck-copy-7" serif:id="neck copy 7" d="M230.4,384.146l0,26.315c0,13.656 11.079,24.726 24.747,24.726c13.667,0 24.746,-11.07 24.746,-24.726l0,-25.772c1.436,-0.437 2.859,-0.912 4.267,-1.425l0,27.376c0,16.149 -13.085,29.24 -29.227,29.24c-16.141,0 -29.226,-13.091 -29.226,-29.24l0,-28.186c1.546,0.611 3.111,1.173 4.693,1.692Z" style="fill:#3b434f;fill-rule:nonzero;"/><path id="Rounded-Rectangle-2" serif:id="Rounded Rectangle 2" d="M331.72,457.489l-12.085,25.207c-0.612,1.275 -2.141,1.813 -3.416,1.202c-1.274,-0.611 -1.812,-2.14 -1.201,-3.415l11.672,-24.345l-9.12,-15.797c-0.707,-1.224 -0.288,-2.79 0.937,-3.497c1.224,-0.707 2.79,-0.287 3.497,0.937l9.813,16.998c0.506,0.875 0.432,1.924 -0.097,2.71Z" style="fill:#3b434f;fill-rule:nonzero;"/><path id="Rounded-Rectangle-2-copy-3" serif:id="Rounded Rectangle 2 copy 3" d="M178.362,457.514l12.151,25.284c0.614,1.279 2.151,1.819 3.433,1.206c1.282,-0.613 1.823,-2.147 1.208,-3.426l-11.734,-24.42l9.169,-15.845c0.71,-1.228 0.289,-2.798 -0.942,-3.508c-1.231,-0.709 -2.805,-0.288 -3.516,0.94l-9.866,17.05c-0.509,0.878 -0.435,1.931 0.097,2.719Z" style="fill:#3b434f;fill-rule:nonzero;"/><rect id="Rectangle-24" serif:id="Rectangle 24" x="225.707" y="400.2" width="4.693" height="103.68" style="fill:#3b434f;fill-rule:nonzero;"/><rect id="Rectangle-24-copy" serif:id="Rectangle 24 copy" x="279.893" y="401.053" width="4.693" height="103.68" style="fill:#3b434f;fill-rule:nonzero;"/><path id="Shape-34" serif:id="Shape 34" d="M243,451l12,-13l13,13l-7,7l11,45l-34,0l12,-45l-7,-7Z" style="fill:#3b434f;fill-rule:nonzero;"/><path id="Rectangle-24-copy-4" serif:id="Rectangle 24 copy 4" d="M269.699,503.69l-12.094,-45.136l2.515,-0.754l1.667,-1.772l12.792,47.738l-4.88,-0.076Zm-34.114,-0.533l12.626,-46.909l0.816,0.699l2.56,1.706l0.844,0.085l-11.977,44.495l-4.869,-0.076Z" style="fill:#3b434f;"/><path id="Ellipse-6" serif:id="Ellipse 6" d="M284.146,463.788l-3.319,3.318l-12.913,-12.913c-2.492,3.958 -6.892,6.594 -11.914,6.594c-5.225,0 -9.776,-2.853 -12.205,-7.08l-13.48,13.479l-3.327,-3.327l26.539,-26.539l2.075,-1.924l2.076,1.924l26.468,26.468Zm-37.74,-12.692c1.701,3.465 5.26,5.851 9.381,5.851c4.027,0 7.514,-2.284 9.259,-5.622l-9.435,-9.434l-9.205,9.205Z" style="fill:#3b434f;"/><path id="_2-copy-5" serif:id="2 copy 5" d="M256.215,116.467c53.078,0 94.972,49.601 93.61,109.198l-1.448,63.341c-1.283,56.146 -42.532,100.527 -92.162,100.527c-49.631,0 -90.879,-44.381 -92.163,-100.527l-1.447,-63.341c-1.363,-59.597 40.532,-109.198 93.61,-109.198Z" style="fill:#fff;fill-rule:nonzero;"/><path id="_2-line" serif:id="2 line" d="M354.089,223.701l-1.517,65.915c-1.344,58.427 -44.566,104.611 -96.571,104.611c-52.005,0 -95.226,-46.184 -96.571,-104.611l-1.517,-65.915c-1.427,-62.018 42.471,-113.634 98.088,-113.634c55.617,0 99.516,51.616 98.088,113.634Zm-98.301,-106.808c-52.352,0 -93.674,49.214 -92.33,108.345l1.428,62.847c1.266,55.708 41.95,99.742 90.902,99.742c48.953,0 89.637,-44.034 90.903,-99.742l1.428,-62.847c1.343,-59.131 -39.978,-108.345 -92.331,-108.345Z" style="fill:#3b434f;"/><path id="usta" d="M302.08,327.326c-7.755,6.734 -25.272,13.141 -45.653,13.141c-20.382,0 -37.898,-6.407 -45.654,-13.141c0,0 -0.793,-2.183 0.371,-3.348c1.186,-1.185 3.043,-0.927 3.043,-0.927c7.747,6.738 21.851,12.296 42.24,12.296c20.389,0 34.493,-5.558 42.24,-12.296c0,0 1.895,-0.704 2.815,0.216c1.773,1.773 0.598,4.059 0.598,4.059Z" style="fill:#3b434f;fill-rule:nonzero;"/><rect id="_-" serif:id="-" x="242.347" y="350.707" width="27.307" height="4.267" style="fill:#3b434f;fill-rule:nonzero;"/><path id="Shape-11-copy" serif:id="Shape 11 copy" d="M157.807,233.313c-0.012,0.001 -1.047,-0.826 -3.003,-1.442c-0.978,-0.307 -2.193,-0.56 -3.578,-0.623c-0.346,-0.015 -0.702,-0.019 -1.066,-0.008c-0.364,0.01 -0.737,0.034 -1.115,0.075c-0.758,0.081 -1.54,0.226 -2.327,0.452c-3.151,0.906 -6.365,3.108 -8.253,7.652c-0.948,2.272 -1.573,5.131 -1.738,8.707c-0.042,0.894 -0.054,1.833 -0.036,2.819c0.018,0.986 0.067,2.018 0.149,3.1c0.163,2.164 0.458,4.523 0.898,7.095c-0.01,-0.003 -0.41,7.77 2.368,16.701c2.613,8.732 8.886,19.458 20.467,22.523c-1.332,-22.179 -1.373,-44.774 -2.766,-67.051l0,0Z" style="fill:#fff;fill-rule:nonzero;"/><path id="Shape-3" serif:id="Shape 3" d="M159.128,234.207c0,0 -20.177,-6.251 -19.466,14.491c0,0 3.003,30.077 4.308,32.849c0,0 7.924,17.512 21.001,18.288c12.781,0.759 0,0 0,0l0.159,5.645c0,0 -22.985,-2.947 -27.424,-29.435l-3.504,-24.062c0,0 -2.721,-31.845 23.669,-23.748c25.709,7.888 0,0 0,0l1.257,5.972" style="fill:#3b434f;fill-rule:nonzero;"/><path id="Shape-4" serif:id="Shape 4" d="M152.468,275.995c0,0 -1.129,0.853 -2.099,0.853c-0.97,0 -2.085,-0.853 -2.085,-0.853l-2.082,-20.983c0,0 2.872,-10.333 15.063,-4.873l0.289,6c0,0 -10.696,-3.793 -10.475,0.93c0.213,4.547 1.389,18.926 1.389,18.926Z" style="fill:#3b434f;fill-rule:nonzero;"/><path id="Shape-11-copy_1" serif:id="Shape 11 copy_1" d="M353.813,233.362c0.012,0.001 1.053,-0.826 3.017,-1.441c0.982,-0.307 2.202,-0.56 3.593,-0.622c0.348,-0.016 0.705,-0.019 1.071,-0.009c0.366,0.01 0.74,0.035 1.12,0.075c0.761,0.081 1.546,0.226 2.337,0.452c3.165,0.905 6.393,3.106 8.29,7.647c0.951,2.271 1.579,5.127 1.745,8.701c0.042,0.893 0.055,1.832 0.036,2.817c-0.018,0.985 -0.067,2.017 -0.149,3.098c-0.164,2.162 -0.461,4.52 -0.902,7.09c0.009,-0.003 0.412,7.765 -2.379,16.69c-2.624,8.726 -8.924,19.445 -20.557,22.508c1.338,-22.164 1.38,-44.744 2.778,-67.006l0,0Z" style="fill:#fff;fill-rule:nonzero;"/><path id="Shape-3_1" serif:id="Shape 3_1" d="M352.483,234.256c0,0 20.264,-6.248 19.551,14.481c0,0 -3.017,30.056 -4.327,32.827c0,0 -7.959,17.5 -21.093,18.275c-12.837,0.758 0,0 0,0l-0.159,5.641c0,0 23.085,-2.945 27.544,-29.415l3.519,-24.046c0,0 2.732,-31.823 -23.773,-23.732c-25.822,7.883 0,0 0,0l-1.262,5.969" style="fill:#3b434f;fill-rule:nonzero;"/><path id="Shape-4_1" serif:id="Shape 4_1" d="M359.171,276.015c0,0 1.134,0.853 2.109,0.853c0.974,0 2.094,-0.853 2.094,-0.853l2.092,-20.969c0,0 -2.886,-10.326 -15.13,-4.869l-0.29,5.996c0,0 10.743,-3.791 10.521,0.929c-0.214,4.544 -1.396,18.913 -1.396,18.913Z" style="fill:#3b434f;fill-rule:nonzero;"/><path id="R-copy" serif:id="R copy" d="M283.327,226.441c0,0 25.545,-14.605 43.793,1.486l4.827,0.748c0,0 -6.183,-22.497 -51.2,-7.869l1.253,4.194m1,0c0,0 25.987,-14.926 43.12,3.927l8.827,-0.252c0,0 -11.009,-24.032 -56.2,-8.869l4.253,6.194" style="fill:#3b434f;fill-rule:nonzero;"/><path id="R-copy-3" serif:id="R copy 3" d="M228.438,226.526c0,0 -25.459,-14.476 -43.646,1.472l-4.811,0.742c0,0 6.162,-22.298 51.029,-7.799l-1.249,4.156m-0.997,0c0,0 -25.9,-14.794 -42.976,3.893l-8.797,-0.25c0,0 10.972,-23.819 56.012,-8.79l-4.239,6.139" style="fill:#3b434f;fill-rule:nonzero;"/><path id="fill" d="M350.588,233.8c0,0 39.388,-103.344 -81.898,-126.887c0,0 -25.387,-1.374 -45.215,-25.006c0,0 -14.165,19.418 -5.971,34.268c0,0 -10.427,9.096 -38.39,1.853c0,0 -4.233,9.04 -0.853,19.449c0,0 -35.174,15.209 -18.412,83.24c0.161,0.651 0.326,1.308 0.496,1.969c0,0 15.05,-60.161 25.594,-61.128c0,0 56.813,32.617 104.932,-2.778c0,0 23.758,31.697 52.892,33.342c0,0 5.27,20.441 6.825,41.678Z" style="fill:#c1bfbd;fill-rule:nonzero;"/><path id="line" d="M353.28,234.653c-1.184,3.213 -5.12,2.134 -5.12,2.134c-1.555,-21.237 -6.4,-41.814 -6.4,-41.814c-29.518,-3.719 -51.627,-32 -51.627,-32c-47.834,32.875 -104.106,1.28 -104.106,1.28c-11.299,9.368 -22.614,58.88 -22.614,58.88c-0.17,-0.661 -5.812,0.652 -5.973,0c-16.762,-68.03 17.493,-87.04 17.493,-87.04c-3.379,-10.41 2.134,-21.333 2.134,-21.333c27.963,7.243 36.693,0.853 36.693,0.853c-7.393,-18.517 8.96,-37.546 8.96,-37.546c19.828,23.632 46.933,26.026 46.933,26.026c111.549,22.354 91.536,109.102 83.627,130.56Zm-86.187,-125.013c0,0 -22.83,-1.242 -43.093,-22.613c0,0 -11.607,15.443 -3.413,30.293c0,0 -11.717,11.51 -39.68,4.267c0,0 -2.212,5.794 0,16.64c0,0 -31.361,16.19 -20.48,71.253c0.13,0.658 -0.171,-0.235 0,0.427c0,0 13.117,-50.808 25.173,-51.2c0,0 58.862,33.324 106.24,-3.84c0,0 25.052,33.341 54.187,34.986c0,0 2.527,7.146 5.546,28.16c0,0 25.552,-87.405 -84.48,-108.373Z" style="fill:#3b434f;"/><path id="new_vector_shape_done" d="M231.092,104.947c0.782,0.015 0.78,0.547 1.009,1.101c0.341,0.827 0.646,1.669 1.04,2.456c0.599,1.191 1.212,2.373 1.924,3.462c0.598,0.916 1.248,1.79 1.892,2.66c0.372,0.502 0.822,0.947 1.198,1.448c0.151,0.199 0.351,0.364 0.505,0.566c0.052,0.048 0.105,0.095 0.158,0.142c0.193,0.255 0.438,0.454 0.63,0.708c0.211,0.205 0.421,0.41 0.631,0.614c0.328,0.328 0.636,0.695 1.009,0.976c0.079,0.084 0.158,0.168 0.237,0.252c0.296,0.223 0.538,0.5 0.835,0.724c0.048,0.052 0.095,0.105 0.142,0.157c0.43,0.323 0.803,0.719 1.23,1.039c0.694,0.52 1.351,1.071 2.066,1.574c0.474,0.333 0.942,0.703 1.419,1.038c0.849,0.597 1.746,1.132 2.617,1.7c0.53,0.346 1.098,0.61 1.64,0.944c1.533,0.947 3.212,1.755 4.856,2.582c0.531,0.267 1.06,0.484 1.609,0.724c0.35,0.153 0.728,0.333 1.072,0.503c0.19,0.094 0.373,0.136 0.567,0.221c0.421,0.183 0.874,0.378 1.293,0.566c0.388,0.174 0.767,0.288 1.167,0.441c0.432,0.165 0.889,0.371 1.325,0.535c0.756,0.286 1.522,0.537 2.27,0.818c0.778,0.293 1.556,0.487 2.349,0.756c1.539,0.52 3.176,0.904 4.778,1.385c0.479,0.144 0.979,0.212 1.451,0.346c0.235,0.067 0.54,0.054 0.741,0.157c0.081,0.042 0.174,0.131 0.252,0.189c0.125,0.094 0.222,0.251 0.315,0.378c0.15,0.204 0.308,0.405 0.426,0.645c0.122,0.25 0.156,0.596 0.221,0.882c0.052,0.229 -0.021,0.516 -0.063,0.676c-0.036,0.135 -0.024,0.228 -0.063,0.362c-0.102,0.349 -0.258,0.687 -0.458,0.945c-0.207,0.267 -0.717,0.274 -1.103,0.173c-0.677,-0.177 -1.419,-0.253 -2.082,-0.441c-0.141,-0.04 -0.254,-0.022 -0.394,-0.063c-0.768,-0.222 -1.607,-0.349 -2.365,-0.566c-0.173,-0.05 -0.319,-0.043 -0.489,-0.095c-0.598,-0.182 -1.22,-0.285 -1.829,-0.472c-1.525,-0.468 -3.086,-0.856 -4.541,-1.385c-0.34,-0.124 -0.656,-0.187 -0.993,-0.315c-2.387,-0.9 -4.757,-1.767 -6.938,-2.864c-0.574,-0.289 -1.143,-0.517 -1.703,-0.819c-1.588,-0.855 -3.132,-1.741 -4.635,-2.675c-0.198,-0.123 -0.39,-0.28 -0.584,-0.409c-0.873,-0.582 -1.71,-1.174 -2.554,-1.779c-0.851,-0.61 -1.61,-1.342 -2.444,-1.967c-0.176,-0.132 -0.325,-0.305 -0.505,-0.441c-0.052,-0.057 -0.105,-0.115 -0.157,-0.173c-0.195,-0.147 -0.346,-0.344 -0.536,-0.488c-0.457,-0.345 -0.843,-0.794 -1.246,-1.196c-0.38,-0.379 -0.793,-0.75 -1.12,-1.18c-0.073,-0.069 -0.147,-0.137 -0.22,-0.205c-0.212,-0.28 -0.486,-0.51 -0.694,-0.787c-0.364,-0.482 -0.792,-0.917 -1.151,-1.401c-0.447,-0.601 -0.908,-1.197 -1.34,-1.81c-0.433,-0.613 -0.809,-1.247 -1.214,-1.888c-1.098,-1.738 -1.991,-3.633 -2.823,-5.65c-0.302,-0.732 -0.505,-1.513 -0.757,-2.282c-0.173,-0.53 -0.257,-1.1 -0.41,-1.637c-0.039,-0.14 -0.025,-0.251 -0.063,-0.394c-0.081,-0.306 -0.173,-0.689 -0.063,-1.007c0.05,-0.142 0.252,-0.344 0.395,-0.393c0.099,-0.035 0.195,-0.009 0.268,-0.063Zm-7.742,23.608c0.561,0.003 0.811,0.415 1.056,0.739c0.254,0.336 0.596,0.606 0.852,0.945c0.21,0.209 0.42,0.419 0.63,0.629c0.144,0.189 0.323,0.338 0.489,0.504c0.171,0.171 0.325,0.356 0.52,0.503c0.19,0.189 0.379,0.378 0.568,0.567c0.194,0.147 0.345,0.344 0.536,0.488c0.59,0.445 1.094,1.005 1.687,1.448c0.629,0.469 1.22,0.996 1.861,1.448c0.84,0.592 1.677,1.193 2.538,1.762c0.441,0.292 0.891,0.536 1.341,0.819c0.343,0.216 0.7,0.464 1.056,0.661c1.478,0.818 2.975,1.62 4.51,2.392c1.215,0.611 2.497,1.106 3.752,1.668c0.387,0.174 0.767,0.289 1.167,0.441c0.903,0.343 1.854,0.693 2.775,1.039c0.871,0.327 1.797,0.551 2.681,0.85c0.144,0.049 0.267,0.043 0.409,0.094c0.457,0.164 0.975,0.267 1.451,0.409c0.239,0.072 0.477,0.071 0.71,0.158c0.51,0.19 1.153,0.764 1.34,1.275c0.323,0.885 -0.035,1.892 -0.442,2.471c-0.122,0.174 -0.304,0.461 -0.52,0.535c-0.34,0.116 -0.698,-0.006 -1.009,-0.095c-0.402,-0.115 -0.787,-0.132 -1.183,-0.252c-0.73,-0.22 -1.49,-0.341 -2.223,-0.566c-1.535,-0.472 -3.066,-0.895 -4.525,-1.448c-3.379,-1.28 -6.498,-2.782 -9.366,-4.564c-1.191,-0.74 -2.319,-1.574 -3.437,-2.393c-0.398,-0.291 -0.759,-0.65 -1.151,-0.944c-0.539,-0.403 -0.997,-0.888 -1.53,-1.29c-0.058,-0.063 -0.115,-0.126 -0.173,-0.189c-0.109,-0.097 -0.228,-0.181 -0.331,-0.284c-0.084,-0.089 -0.169,-0.178 -0.253,-0.267c-0.201,-0.152 -0.359,-0.343 -0.536,-0.52c-0.171,-0.171 -0.357,-0.324 -0.504,-0.519c-0.116,-0.11 -0.232,-0.22 -0.347,-0.33c-0.387,-0.511 -0.876,-0.932 -1.262,-1.448c-0.09,-0.122 -0.224,-0.225 -0.315,-0.347c-0.37,-0.492 -0.779,-0.96 -1.135,-1.463c-0.405,-0.573 -0.826,-1.15 -1.198,-1.747c-0.147,-0.235 -0.259,-0.476 -0.41,-0.709c-0.166,-0.255 -0.292,-0.523 -0.442,-0.802c-0.089,-0.166 -0.22,-0.349 -0.284,-0.535c-0.065,-0.189 -0.085,-0.555 0.016,-0.724c0.069,-0.116 0.231,-0.298 0.363,-0.347c0.098,-0.036 0.195,-0.008 0.268,-0.062Zm-10.596,11.489c0.633,0.007 0.793,0.474 1.056,0.85c0.425,0.603 0.914,1.159 1.356,1.747c0.353,0.468 0.813,0.854 1.167,1.322c0.137,0.131 0.274,0.262 0.41,0.393c0.196,0.259 0.497,0.56 0.757,0.755c0.053,0.058 0.105,0.116 0.158,0.174c0.129,0.128 0.262,0.251 0.41,0.362c0.068,0.073 0.136,0.146 0.205,0.22c0.35,0.264 0.643,0.605 0.993,0.866c0.836,0.622 1.632,1.3 2.491,1.904c1.862,1.309 3.914,2.402 6.023,3.462c0.69,0.347 1.423,0.604 2.113,0.945c0.294,0.145 0.596,0.218 0.899,0.346c0.827,0.35 1.714,0.655 2.57,0.976c1.185,0.444 2.442,0.722 3.658,1.133c0.426,0.144 0.881,0.208 1.293,0.346c0.367,0.123 0.742,0.143 1.12,0.252c0.747,0.217 1.579,0.337 2.349,0.535c0.444,0.115 0.895,0.142 1.324,0.252c0.48,0.123 0.983,0.137 1.451,0.252c0.105,0.01 0.21,0.021 0.315,0.031c0.481,0.122 1.041,0.136 1.53,0.252c0.209,0.05 0.389,0.014 0.599,0.063c0.683,0.159 1.464,0.127 2.16,0.283c0.199,0.045 0.406,0.023 0.583,0.063l0.19,0c0.24,0.054 0.545,0.041 0.788,0.095l0.205,0c0.397,0.087 0.877,0.038 1.277,0.126l0.268,0c0.51,0.111 1.123,0.013 1.64,0.125c0.2,0.006 0.4,0.011 0.599,0.016c0.113,0.025 0.293,-0.013 0.426,0.016c0.352,0.076 0.805,0.009 1.167,0.063c0.213,0.032 0.472,-0.025 0.662,0.016c0.168,0.036 0.388,-0.017 0.536,0.015l1.23,0c0.97,0 1.918,-0.027 2.854,-0.031c0.443,-0.002 0.926,-0.099 1.293,0.031c0.207,0.074 0.399,0.256 0.567,0.378c0.379,0.275 0.736,0.667 0.915,1.133c0.055,0.142 0.05,0.268 0.095,0.425c0.071,0.253 0.174,0.65 0.094,0.992c-0.052,0.222 -0.079,0.491 -0.158,0.708c-0.12,0.334 -0.443,0.432 -0.819,0.519c-0.137,0.006 -0.274,0.011 -0.41,0.016c-0.583,0.127 -1.292,0.015 -1.877,0.142c-0.112,0.024 -0.269,-0.005 -0.362,0.015c-0.221,0.006 -0.442,0.011 -0.663,0.016c-0.214,0.046 -0.483,-0.02 -0.725,0.032c-0.202,0.043 -0.449,0.031 -0.678,0.031l-0.252,0c-0.195,0.042 -0.469,0.032 -0.678,0.032l-0.915,0c-0.284,0.06 -0.679,0.015 -0.993,0.015c-0.26,0 -0.589,0.034 -0.82,-0.015l-0.536,0c-0.373,0 -0.741,0 -1.088,-0.032l-0.536,0c-0.306,-0.066 -0.706,0.003 -1.009,-0.063l-0.363,0c-0.222,-0.048 -0.522,-0.015 -0.741,-0.063l-0.315,0c-0.169,-0.037 -0.415,-0.026 -0.584,-0.063l-0.252,0c-0.584,-0.129 -1.257,-0.061 -1.829,-0.189c-0.158,-0.01 -0.315,-0.021 -0.473,-0.031c-0.742,-0.169 -1.564,-0.143 -2.286,-0.315c-0.197,-0.047 -0.358,-0.015 -0.552,-0.063c-0.672,-0.164 -1.412,-0.209 -2.066,-0.377c-0.108,-0.028 -0.176,-0.004 -0.284,-0.032c-0.309,-0.081 -0.671,-0.133 -0.977,-0.22c-0.142,-0.041 -0.252,-0.022 -0.394,-0.063c-1.063,-0.306 -2.17,-0.466 -3.217,-0.787c-1.854,-0.568 -3.728,-1.077 -5.408,-1.826c-0.381,-0.17 -0.76,-0.268 -1.135,-0.441c-0.664,-0.305 -1.349,-0.583 -2.003,-0.912c-1.023,-0.515 -2.023,-1.057 -3.011,-1.606c-0.696,-0.386 -1.365,-0.857 -2.019,-1.29c-0.536,-0.356 -1.055,-0.704 -1.576,-1.07c-0.514,-0.361 -0.993,-0.776 -1.498,-1.149c-0.514,-0.38 -0.955,-0.858 -1.467,-1.244c-0.194,-0.146 -0.358,-0.389 -0.552,-0.535c-0.477,-0.36 -0.872,-0.839 -1.292,-1.259c-1.796,-1.792 -3.32,-3.851 -4.683,-6.075c-0.315,-0.513 -0.544,-1.049 -0.82,-1.605c-0.126,-0.254 -0.258,-0.596 -0.126,-0.945c0.042,-0.111 0.267,-0.336 0.378,-0.377c0.091,-0.035 0.199,-0.011 0.268,-0.063Zm104.349,15.518c0.574,0.006 0.751,0.387 0.993,0.724c0.24,0.332 0.512,0.644 0.757,0.976c0.522,0.703 1.176,1.303 1.703,1.998c0.184,0.243 0.445,0.431 0.631,0.677c0.073,0.068 0.147,0.137 0.221,0.205c0.256,0.338 0.6,0.615 0.898,0.913c0.258,0.257 0.515,0.514 0.773,0.771c0.405,0.306 0.733,0.735 1.135,1.039c0.23,0.173 0.42,0.396 0.647,0.566c0.745,0.56 1.423,1.21 2.176,1.763c1.134,0.832 2.27,1.672 3.453,2.455c1.778,1.178 3.666,2.241 5.581,3.274c1.088,0.586 2.229,1.084 3.343,1.637c0.396,0.196 0.812,0.343 1.198,0.535c0.144,0.07 0.283,0.086 0.426,0.157c0.617,0.305 1.304,0.536 1.939,0.818c0.164,0.073 0.306,0.094 0.474,0.158c0.618,0.234 1.273,0.473 1.907,0.708c0.357,0.132 0.78,0.183 1.104,0.362c0.818,0.452 1.572,1.421 1.151,2.707c-0.15,0.458 -0.404,0.814 -0.662,1.165c-0.178,0.242 -0.401,0.338 -0.725,0.44c-0.08,0.025 -0.434,-0.1 -0.505,-0.126c-0.435,-0.157 -0.871,-0.232 -1.309,-0.377c-2.259,-0.751 -4.428,-1.546 -6.512,-2.455c-3.372,-1.473 -6.394,-3.351 -9.239,-5.352c-0.828,-0.581 -1.575,-1.27 -2.381,-1.872c-0.237,-0.177 -0.439,-0.403 -0.678,-0.583c-0.048,-0.052 -0.095,-0.105 -0.142,-0.157c-0.321,-0.242 -0.579,-0.546 -0.899,-0.787c-0.142,-0.147 -0.284,-0.294 -0.426,-0.441c-0.161,-0.121 -0.285,-0.268 -0.425,-0.409c-0.141,-0.141 -0.289,-0.264 -0.41,-0.425c-0.1,-0.094 -0.2,-0.189 -0.3,-0.283c-0.18,-0.181 -0.366,-0.378 -0.52,-0.583c-0.095,-0.094 -0.189,-0.188 -0.284,-0.283c-0.203,-0.268 -0.463,-0.49 -0.662,-0.755c-0.521,-0.692 -1.088,-1.332 -1.593,-2.046c-0.453,-0.642 -0.951,-1.278 -1.372,-1.952c-0.539,-0.863 -1.032,-1.753 -1.513,-2.675c-0.211,-0.405 -0.451,-0.913 -0.599,-1.354c-0.066,-0.196 -0.086,-0.547 0.015,-0.724c0.069,-0.12 0.229,-0.296 0.363,-0.346c0.091,-0.035 0.199,-0.011 0.268,-0.063Z" style="fill:#3b434f;fill-opacity:0.2;"/><path id="new_vector_shape_done_1" d="M263.893,274.333l1.494,0c3.087,4.193 4.343,10.637 5.973,16.214c0.505,1.728 0.015,4.751 -0.427,5.973c-1.617,4.476 -6.697,4.395 -10.88,6.4c-1.123,0.538 -1.958,1.468 -3.413,1.707c-0.948,-0.836 -2.093,-1 -2.56,-2.347c-1.152,-1.587 0.333,-2.578 1.493,-3.2c2.107,-1.13 8.608,-2.243 9.387,-4.267c0.963,-1.095 0.323,-4.39 0,-5.546c-0.827,-2.962 -1.223,-5.435 -2.347,-8.107c-0.746,-1.775 -2.056,-3.646 -1.28,-5.76c0.644,-0.276 2.034,-0.59 2.56,-1.067Z" style="fill:#3b434f;"/><path id="oko" d="M209.067,238.067c4.713,0 8.533,3.82 8.533,8.533c0,4.713 -3.82,8.533 -8.533,8.533c-4.713,0 -8.534,-3.82 -8.534,-8.533c0,-4.713 3.821,-8.533 8.534,-8.533Z" style="fill:#3b434f;fill-rule:nonzero;"/><path id="oko_1" d="M303.787,238.067c4.712,0 8.533,3.82 8.533,8.533c0,4.713 -3.821,8.533 -8.533,8.533c-4.713,0 -8.534,-3.82 -8.534,-8.533c0,-4.713 3.821,-8.533 8.534,-8.533Z" style="fill:#3b434f;fill-rule:nonzero;"/><path id="Ellipse-3" serif:id="Ellipse 3" d="M307.627,269.64c5.891,0 10.666,4.776 10.666,10.667c0,5.891 -4.775,10.666 -10.666,10.666c-5.891,0 -10.667,-4.775 -10.667,-10.666c0,-5.891 4.776,-10.667 10.667,-10.667Z" style="fill:#f5f3ef;fill-rule:nonzero;"/><path id="Ellipse-3-copy" serif:id="Ellipse 3 copy" d="M204.373,269.64c5.891,0 10.667,4.776 10.667,10.667c0,5.891 -4.776,10.666 -10.667,10.666c-5.891,0 -10.666,-4.775 -10.666,-10.666c0,-5.891 4.775,-10.667 10.666,-10.667Z" style="fill:#f4f3ef;fill-rule:nonzero;"/></svg>